<svg viewBox="0 0 512 512" fill="none" xmlns="http://www.w3.org/2000/svg">
<g clip-path="url(#clip0_495_676)">
<ellipse cx="292.225" cy="294.564" rx="195.388" ry="161.436" fill="#BBF7D0"/>
<ellipse cx="179.799" cy="169.87" rx="35.6198" ry="35.6198" fill="white"/>
<path d="M82.7437 171.221C82.7437 142.725 92.7172 119.216 112.664 100.694C132.611 82.1713 155.408 72.9102 181.054 72.9102C206.701 72.9102 229.379 82.1713 249.088 100.694C268.798 118.978 278.653 142.369 278.653 170.865C278.653 190.574 273.547 208.147 263.336 223.582C253.125 238.78 240.658 250.059 225.935 257.421C211.45 264.545 196.371 268.107 180.698 268.107C165.025 268.107 149.828 264.307 135.105 256.708C120.382 248.872 107.915 237.474 97.704 222.513C87.7304 207.316 82.7437 190.218 82.7437 171.221ZM157.189 196.867C164.788 202.566 172.506 205.416 180.342 205.416C188.178 205.416 196.015 202.448 203.851 196.511C211.687 190.574 215.606 181.788 215.606 170.152C215.606 158.517 211.925 149.849 204.563 144.15C197.202 138.451 189.247 135.601 180.698 135.601C172.149 135.601 164.194 138.569 156.833 144.506C149.471 150.443 145.791 159.229 145.791 170.865C145.791 182.263 149.59 190.931 157.189 196.867Z" fill="#BBF7D0"/>
<circle cx="180.117" cy="169.587" r="26.3851" fill="white"/>
<path d="M108.224 170.588C108.224 149.48 115.612 132.066 130.388 118.345C145.163 104.625 162.05 97.7651 181.047 97.7651C200.044 97.7651 216.843 104.625 231.442 118.345C246.042 131.89 253.342 149.216 253.342 170.324C253.342 184.924 249.56 197.94 241.996 209.374C234.433 220.632 225.198 228.987 214.292 234.44C203.562 239.717 192.392 242.355 180.783 242.355C169.174 242.355 157.916 239.541 147.01 233.912C136.104 228.107 126.87 219.664 119.306 208.582C111.918 197.325 108.224 184.66 108.224 170.588ZM163.369 189.585C168.998 193.807 174.714 195.918 180.519 195.918C186.324 195.918 192.129 193.719 197.933 189.321C203.738 184.924 206.64 178.415 206.64 169.796C206.64 161.177 203.914 154.757 198.461 150.535C193.008 146.314 187.115 144.203 180.783 144.203C174.451 144.203 168.558 146.402 163.105 150.799C157.652 155.197 154.926 161.705 154.926 170.324C154.926 178.767 157.74 185.188 163.369 189.585Z" fill="#16A34A"/>
<ellipse cx="411.703" cy="169.87" rx="35.6198" ry="35.6198" fill="white"/>
<path d="M314.647 171.221C314.647 142.725 324.621 119.216 344.568 100.694C364.515 82.1716 387.312 72.9104 412.958 72.9104C438.604 72.9104 461.282 82.1716 480.992 100.694C500.702 118.979 510.557 142.369 510.557 170.865C510.557 190.575 505.451 208.147 495.24 223.582C485.029 238.78 472.562 250.06 457.839 257.421C443.354 264.545 428.275 268.107 412.602 268.107C396.929 268.107 381.731 264.308 367.009 256.709C352.286 248.872 339.819 237.474 329.608 222.514C319.634 207.316 314.647 190.218 314.647 171.221ZM389.093 196.867C396.692 202.567 404.409 205.416 412.246 205.416C420.082 205.416 427.919 202.448 435.755 196.511C443.591 190.575 447.509 181.788 447.509 170.153C447.509 158.517 443.829 149.849 436.467 144.15C429.106 138.451 421.151 135.601 412.602 135.601C404.053 135.601 396.098 138.57 388.737 144.506C381.375 150.443 377.695 159.229 377.695 170.865C377.695 182.263 381.494 190.931 389.093 196.867Z" fill="#BBF7D0"/>
<circle cx="411.851" cy="168.627" r="26.3851" fill="white"/>
<path d="M339.676 169.628C339.676 148.52 347.064 131.106 361.839 117.386C376.615 103.666 393.501 96.8057 412.499 96.8057C431.496 96.8057 448.294 103.666 462.894 117.386C477.494 130.93 484.794 148.257 484.794 169.365C484.794 183.964 481.012 196.981 473.448 208.414C465.884 219.672 456.65 228.027 445.744 233.48C435.014 238.757 423.844 241.396 412.235 241.396C400.625 241.396 389.368 238.581 378.462 232.953C367.556 227.148 358.321 218.705 350.758 207.623C343.37 196.365 339.676 183.7 339.676 169.628ZM394.821 188.626C400.449 192.847 406.166 194.958 411.971 194.958C417.776 194.958 423.58 192.759 429.385 188.362C435.19 183.964 438.092 177.456 438.092 168.837C438.092 160.218 435.366 153.797 429.913 149.576C424.46 145.354 418.567 143.243 412.235 143.243C405.902 143.243 400.01 145.442 394.557 149.84C389.104 154.237 386.377 160.745 386.377 169.365C386.377 177.808 389.192 184.228 394.821 188.626Z" fill="#16A34A"/>
<path d="M206.264 268.495C273.143 281.098 310.495 280.943 377.342 268.495" stroke="#16A34A" stroke-width="17.2806" stroke-linecap="round"/>
<rect width="86.849" height="27.6084" transform="matrix(-1 -8.74228e-08 -8.74228e-08 1 456.306 128.316)" fill="#16A34A"/>
<rect width="86.849" height="27.6084" transform="matrix(-1 -8.74228e-08 -8.74228e-08 1 225.116 128.316)" fill="#16A34A"/>
<path d="M63.7709 183.583L110.752 253.581C114.552 259.242 116.629 263.82 116.984 267.315C117.51 270.695 116.689 273.734 114.52 276.435C112.35 279.135 108.95 282.039 104.318 285.149C99.8569 288.142 95.9662 290.132 92.6454 291.116C89.3247 292.101 86.4587 291.909 84.0475 290.541C80.144 288.433 76.2923 284.548 72.4924 278.887L10.3113 186.243C2.25084 174.233 0.789391 165.011 5.92699 158.577C7.9811 155.705 12.0105 152.254 18.0152 148.224L161.099 52.1885C165.045 49.5401 168.019 47.6683 170.021 46.5732C172.31 45.5346 175.202 44.8379 178.697 44.4831C184.941 43.7759 191.748 48.9124 199.118 59.8924C207.178 71.9019 208.783 81.152 203.932 87.6429C201.591 90.4582 197.419 93.8811 191.414 97.9113L63.7709 183.583Z" fill="#16A34A"/>
</g>
<defs>
<clipPath id="clip0_495_676">
<rect width="512" height="512" fill="white"/>
</clipPath>
</defs>
</svg>
